<?xml version="1.0" encoding="UTF-8"?>
<svg id="Layer_2" data-name="Layer 2" xmlns="http://www.w3.org/2000/svg" viewBox="0 0 2090.78 1120.88">
  <defs>
    <style>
      .cls-1 {
        fill: #cba847;
      }

      .cls-2 {
        fill: #231f20;
      }
    </style>
  </defs>
  <g id="Layer_2-2" data-name="Layer 2">
    <g id="Layer_1-2" data-name="Layer 1-2">
      <g>
        <g>
          <path class="cls-1" d="M184.81,0c-6.57,9.98,23.28,62.19,28.27,72.75,19.45,40.41,43.73,78.48,72.33,112.99,40.16,48.55,86.96,86.88,130.03,131.44,70.25,72.66,96.86,171.35,93.53,269.04-1.75,51.3-9.31,102.93-25.11,151.81-8.65-155.64-104.17-313.6-228.97-402.64-2.83-2-7.4-4.07-9.73-6.73,0,0,399.82,471.4,101.85,792.23,0,0,165.11-291.65-121.3-514.55C-64.94,380.11,184.64.33,184.81,0Z"/>
          <path class="cls-2" d="M69.91,506.65c-1.5,2.24,6.73,17.38,7.65,19.45,7.32,16.63,15.96,32.67,25.44,48.14,21.7,35.25,48.22,67.59,78.48,95.78,39.74,36.91,86.05,62.35,117.23,108.16,29.02,42.73,45.98,92.87,54.37,143.58,3.82,23.2,5.9,46.81,6.07,70.34,0,9.56-.17,19.12-.91,28.68-.5,6.32-3.91,16.38-2.66,22.45,0,0-40.24-198.54-205.27-293.73,0,0,143.5,124.79,165.03,273.61-29.18,11.89-486.36-154.64-245.51-516.46h.08Z"/>
          <path class="cls-1" d="M487.94,822.91s-1.33-118.72,134.1-242.77c0,0,102.59,201.2-134.1,285.08,0,0,46.97-79.81,99.93-150.23,0,0-30.18-5.4-99.93,108v-.08Z"/>
        </g>
        <g>
          <path class="cls-2" d="M972.97,355.92c18.87,18.21,28.27,45.31,28.27,81.14v141.84h-57.95v-134.44c0-21.62-5.07-37.91-15.3-48.89-10.23-10.97-24.69-16.46-43.56-16.46-21.28,0-38.16,6.4-50.55,19.21-12.39,12.8-18.54,31.26-18.54,55.37v125.12h-57.95v-247.51h55.12v32.01c9.56-11.39,21.62-20.12,36.17-25.94,14.55-5.9,30.93-8.81,49.14-8.81,31.18,0,56.2,9.15,75.07,27.35h.08Z"/>
          <path class="cls-2" d="M1212.08,354.76c19.29,17.46,28.93,43.81,28.93,78.98v145.08h-54.71v-30.1c-7.15,10.81-17.21,19.04-30.35,24.78-13.14,5.74-28.93,8.56-47.47,8.56s-34.75-3.16-48.64-9.48c-13.88-6.32-24.61-15.13-32.17-26.44s-11.39-24.03-11.39-38.24c0-22.28,8.23-40.07,24.78-53.54,16.54-13.47,42.57-20.12,78.07-20.12h63.93v-3.74c0-17.29-5.15-30.6-15.55-39.82-10.39-9.31-25.69-13.88-46.14-13.88-13.88,0-27.6,2.16-40.99,6.48-13.47,4.32-24.78,10.39-34.09,18.04l-22.7-42.15c12.97-9.89,28.6-17.46,46.81-22.7,18.21-5.24,37.58-7.9,57.95-7.9,36.42,0,64.35,8.73,83.64,26.19h.08ZM1159.2,530.01c11.31-6.65,19.21-16.13,23.86-28.52v-28.77h-59.78c-33.34,0-50.05,10.97-50.05,32.92,0,10.48,4.16,18.87,12.55,25.02,8.31,6.15,19.95,9.23,34.75,9.23s27.44-3.33,38.66-9.98v.08Z"/>
          <path class="cls-2" d="M1422.92,565.43c-6.82,5.57-15.05,9.73-24.78,12.47-9.73,2.74-20.04,4.16-30.84,4.16-27.19,0-48.22-7.07-63.02-21.28s-22.28-34.92-22.28-62.11v-119.14h-40.82v-46.31h40.82v-56.53h57.95v56.53h66.26v46.31h-66.26v117.73c0,12.06,2.91,21.28,8.81,27.6,5.9,6.32,14.38,9.48,25.52,9.48,12.97,0,23.78-3.41,32.42-10.23l16.21,41.24v.08Z"/>
          <path class="cls-2" d="M1669.26,331.39v247.51h-55.12v-31.51c-9.23,11.14-20.87,19.7-34.75,25.69-13.88,5.99-28.93,9.06-44.98,9.06-33.09,0-59.11-9.23-78.07-27.6-19.04-18.37-28.52-45.64-28.52-81.81v-141.34h57.95v133.52c0,22.28,4.99,38.83,15.05,49.8,10.06,10.97,24.36,16.46,42.9,16.46,20.7,0,37.16-6.4,49.38-19.21,12.22-12.8,18.29-31.26,18.29-55.37v-125.12h57.95l-.08-.08Z"/>
          <path class="cls-2" d="M1847.43,328.57v55.12c-4.91-.91-9.39-1.41-13.47-1.41-22.53,0-40.16,6.57-52.88,19.7-12.64,13.14-19.04,32.09-19.04,56.78v120.05h-57.95v-247.51h55.12v36.17c16.71-25.94,46.06-38.91,88.04-38.91h.17Z"/>
          <path class="cls-2" d="M2089.7,473.64h-194.21c3.41,18.21,12.3,32.67,26.69,43.32,14.38,10.64,32.17,15.96,53.54,15.96,27.19,0,49.63-8.98,67.18-26.85l31.09,35.67c-11.14,13.3-25.19,23.36-42.15,30.1-16.96,6.82-36.17,10.23-57.45,10.23-27.19,0-51.13-5.4-71.83-16.21-20.7-10.81-36.66-25.86-47.97-45.23-11.31-19.29-16.88-41.15-16.88-65.6s5.49-45.81,16.46-65.1c10.97-19.29,26.19-34.34,45.64-45.23,19.45-10.81,41.4-16.21,65.85-16.21s45.64,5.32,64.68,15.96,33.84,25.69,44.48,44.98,15.96,41.65,15.96,67.01c0,3.99-.33,9.73-.91,17.13l-.17.08ZM1918.43,391.42c-12.8,10.97-20.62,25.61-23.45,43.81h140.42c-2.49-17.96-10.06-32.42-22.7-43.57-12.64-11.14-28.43-16.71-47.31-16.71s-34.25,5.49-47.06,16.46h.08Z"/>
        </g>
        <g>
          <path class="cls-1" d="M737.44,886.02l16.21-34.25c22.86,20.62,61.94,35.58,101.43,35.58,53.13,0,75.99-20.62,75.99-47.39,0-75.07-186.23-27.69-186.23-141.84,0-47.39,36.91-87.8,117.73-87.8,36,0,73.33,9.64,98.77,27.19l-14.47,35.17c-26.77-17.13-57.12-25.02-84.3-25.02-52.29,0-74.66,21.95-74.66,48.72,0,75.07,186.23,28.1,186.23,141,0,46.97-37.75,87.38-118.97,87.38-46.97,0-93.12-15.8-117.73-38.66v-.08Z"/>
          <path class="cls-1" d="M1226.63,818.84h-188.81c5.24,40.82,38.24,68.09,84.3,68.09,27.27,0,50.05-9.23,67.18-28.1l23.28,27.19c-21.12,24.61-53.13,37.75-91.79,37.75-75.07,0-125.12-49.63-125.12-118.97s49.63-118.56,116.81-118.56,115.06,48.3,115.06,119.89c0,3.49-.42,8.81-.91,12.72h0ZM1037.82,788.58h149.32c-4.41-39.08-33.84-66.76-74.66-66.76s-70.25,27.19-74.66,66.76Z"/>
          <path class="cls-1" d="M1249.49,804.79c0-69.42,51.38-118.56,122.96-118.56,41.74,0,76.41,17.13,94.86,49.63l-32.09,20.62c-14.97-22.86-37.75-33.34-63.27-33.34-45.64,0-79.9,32.09-79.9,81.64s34.25,82.14,79.9,82.14c25.44,0,48.3-10.56,63.27-33.34l32.09,20.2c-18.46,32.51-53.13,50.05-94.86,50.05-71.58,0-122.96-49.63-122.96-118.97v-.08Z"/>
          <path class="cls-1" d="M1632.02,686.23v40.82c-3.49-.42-6.57-.42-9.64-.42-45.23,0-73.33,27.69-73.33,78.57v115.9h-42.15v-232.71h40.41v39.08c14.97-27.27,43.9-41.32,84.72-41.32v.08Z"/>
          <path class="cls-1" d="M1881.43,818.84h-188.81c5.24,40.82,38.24,68.09,84.3,68.09,27.27,0,50.05-9.23,67.18-28.1l23.28,27.19c-21.12,24.61-53.13,37.75-91.79,37.75-75.07,0-125.12-49.63-125.12-118.97s49.63-118.56,116.81-118.56,115.06,48.3,115.06,119.89c0,3.49-.42,8.81-.91,12.72ZM1692.62,788.58h149.32c-4.41-39.08-33.84-66.76-74.66-66.76s-70.25,27.19-74.66,66.76h0Z"/>
          <path class="cls-1" d="M2056.69,907.55c-12.72,10.97-32.09,16.21-50.96,16.21-46.97,0-73.74-25.94-73.74-72.91v-127.79h-39.49v-34.67h39.49v-50.96h42.15v50.96h66.76v34.67h-66.76v126.04c0,25.02,13.14,39.08,36.42,39.08,12.3,0,24.19-3.99,32.92-10.97l13.14,30.26.08.08Z"/>
        </g>
      </g>
    </g>
  </g>
</svg>